<svg viewBox="0 0 33 33" fill="#A19797" xmlns="http://www.w3.org/2000/svg" xmlns:xlink="http://www.w3.org/1999/xlink"><g><path d="M27.982,3.426H26.86V2.292C26.86,1.028,25.832,0,24.566,0c-1.263,0-2.291,1.028-2.291,2.292v1.134H9.727 V2.292C9.727,1.028,8.699,0,7.437,0C6.171,0,5.146,1.028,5.146,2.292v1.134H3.993c-1.255,0.009-2.28,1.037-2.28,2.295v5.138v6.845 v6.858v6.857C1.713,31.74,1.976,32,2.294,32h6.858h6.858h6.843h6.855c0.318,0,0.578-0.26,0.578-0.581v-6.857v-6.858v-6.845V5.721 C30.287,4.463,29.264,3.436,27.982,3.426z M15.431,11.439v5.686H9.732v-5.686H15.431z M22.275,11.439v5.686h-5.687v-5.686H22.275z M29.129,11.439v5.686h-5.695v-5.686H29.129z M8.572,17.125H2.874v-5.686h5.698V17.125z M2.874,18.284h5.698v5.698H2.874V18.284z M9.732,18.284h5.698v5.698H9.732V18.284z M16.589,18.284h5.687v5.698h-5.687V18.284z M23.434,18.284h5.695v5.698h-5.695V18.284z M23.434,2.292c0-0.625,0.508-1.133,1.133-1.133s1.131,0.507,1.131,1.133v1.714v1.715c0,0.625-0.506,1.133-1.131,1.133 s-1.133-0.508-1.133-1.133V4.006V2.292z M6.303,2.292c0-0.625,0.506-1.133,1.134-1.133c0.624,0,1.13,0.507,1.13,1.133v1.714v1.715 c0,0.625-0.506,1.133-1.13,1.133c-0.628,0-1.134-0.508-1.134-1.133V4.006V2.292z M2.874,5.721c0-0.621,0.506-1.13,1.146-1.135h1.125 v1.135c0,1.264,1.025,2.291,2.291,2.291c1.263,0,2.29-1.027,2.29-2.291V4.586h12.549v1.135c0,1.264,1.028,2.291,2.291,2.291 c1.266,0,2.294-1.027,2.294-2.291V4.586h1.142c0.621,0.005,1.127,0.514,1.127,1.135v4.559h-6.185h-0.091h-0.086h-6.665h-0.092 h-0.088H9.152H2.874V5.721z M2.874,25.142h5.698v5.697H2.874V25.142z M9.732,25.142h5.698v5.697H9.732V25.142z M16.589,25.142h5.687 v5.697h-5.687V25.142z M29.129,30.839h-5.695v-5.697h5.695V30.839z"></path></g></svg>
