<svg viewBox="0 0 33 33" fill="#A19797" xmlns="http://www.w3.org/2000/svg" xmlns:xlink="http://www.w3.org/1999/xlink"><g><path d="M25.644,0H6.359C6.041,0,5.784,0.257,5.784,0.575v30.85c0,0.232,0.14,0.44,0.353,0.528 c0.219,0.097,0.463,0.041,0.63-0.123l1.921-1.923c0.005-0.001,0.005-0.004,0.008-0.007L16,22.598l9.236,9.231 c0.109,0.109,0.254,0.168,0.407,0.168c0.071,0,0.146-0.014,0.22-0.045c0.213-0.088,0.353-0.296,0.353-0.528V0.575 C26.216,0.257,25.959,0,25.644,0z M25.069,30.037l-0.782-0.779v-3.619c0-0.315-0.258-0.573-0.572-0.573 c-0.32,0-0.574,0.258-0.574,0.573v2.472l-6.736-6.729c-0.111-0.111-0.257-0.168-0.404-0.168c-0.145,0-0.293,0.057-0.405,0.168 L8.862,28.11v-2.467c0-0.317-0.26-0.574-0.575-0.574c-0.316,0-0.574,0.257-0.574,0.574v3.614l-0.779,0.779V1.149h18.136V30.037z"></path></g></svg>
